<svg id="Слой_1" xmlns="http://www.w3.org/2000/svg" width="17" height="15" viewBox="0 0 17 15"><style>.st0{fill:#fff}</style><path d="M3.1 9.5C2 8.5 1.3 7.3 1 6 .8 5 .9 4.5.9 4.5c.2-2.3 1.8-4 3.8-4 1.5 0 2.8.9 3.4 2.4L8.5 4l.4-1.1c.6-1.4 2-2.4 3.5-2.4 2 0 3.6 1.7 3.8 4 0 0 .1.6-.1 1.5-.3 1.3-1 2.5-2.1 3.5l-5.5 4.9-5.4-4.9z"/><path class="st0" d="M4.6 1c1.3 0 2.4.7 3 2l.9 2.1.8-2.1c.5-1.2 1.7-2.1 3-2.1 2 0 3.1 1.8 3.3 3.5 0 0 .1.5-.1 1.3-.3 1.2-1 2.4-1.9 3.2l-5.1 4.6-5-4.6c-1-.9-1.7-2-2-3.3-.2-.5-.2-1-.2-1C1.5 2.7 2.7 1 4.6 1m0-1C2.3 0 .6 2 .4 4.4c0 0-.1.6.1 1.7.3 1.5 1.2 2.8 2.2 3.8L8.5 15l5.8-5.2c1.1-1 1.9-2.3 2.2-3.8.3-1.1.1-1.7.1-1.7C16.4 2 14.7 0 12.4 0c-1.7 0-3.3 1.1-3.9 2.6C7.8 1.1 6.4 0 4.6 0z"/></svg>