<svg xmlns="http://www.w3.org/2000/svg" width="22" height="19" viewBox="0 0 22 19"><path d="M4.355 3.802L17.316.815l.225.974L4.58 4.776z"/><circle cx="10.4" cy="2.8" r="2"/><path d="M9.4 13.6s-1 4-4.2 4-3.8-4-3.8-4h8m1.3-1H.3l.1 1.1c.2 1.7 1.5 4.9 4.8 4.9 4 0 5.2-4.6 5.2-4.8l.3-1.2z"/><path d="M10.2 14.1H.6l4.8-9.6 4.8 9.6zm-8-1h6.4L5.4 6.7l-3.2 6.4zm18.2-3.5s-1 4-4.2 4-3.8-4-3.8-4h8m1.3-1H11.3l.1 1.1c.2 1.7 1.5 4.9 4.8 4.9 4 0 5.2-4.6 5.2-4.8l.3-1.2z"/><path d="M21.2 10.1h-9.6L16.4.5l4.8 9.6zm-8-1h6.4l-3.2-6.4-3.2 6.4z"/></svg>