<svg xmlns="http://www.w3.org/2000/svg" width="22" height="18" viewBox="0 0 22 18"><path d="M4.368 3.4L17.328.413l.225.975-12.96 2.987z"/><circle cx="10.4" cy="2.4" r="2"/><path d="M9.4 13s-1 4-4.2 4-3.7-4-3.7-4h7.9m1.3-1H.4l.1 1.1C.7 14.8 2 18 5.2 18c3.9 0 5.1-4.5 5.2-4.7l.3-1.3z"/><path d="M10.2 13.5H.7L5.5 4l4.7 9.5zm-7.9-1h6.3L5.5 6.2l-3.2 6.3zm18.1-3.4s-1 4-4.2 4-3.7-4-3.7-4h7.9m1.2-1H11.3l.1 1.1c.2 1.7 1.5 4.8 4.7 4.8 3.9 0 5.1-4.5 5.2-4.7l.3-1.2z"/><path d="M21.2 9.6h-9.6L16.4 0l4.8 9.6zm-8-1h6.3l-3.2-6.3-3.1 6.3z"/></svg>