<svg id="Слой_1" xmlns="http://www.w3.org/2000/svg" width="17" height="16" viewBox="0 0 17 16"><style>.st0{fill:#fff}</style><path class="st0" d="M3.2 9.9C2.1 9 1.4 7.8 1.1 6.5.9 5.6 1 5.1 1 5.1c.2-2.3 1.8-3.9 3.7-3.9C6.1 1.1 7.4 2 8 3.4l.4 1 .4-1c.6-1.4 1.9-2.3 3.4-2.3 1.9 0 3.5 1.6 3.7 3.9 0 0 .1.6-.1 1.5-.3 1.3-1 2.5-2.1 3.4l-5.4 4.8-5.1-4.8z"/><path d="M4.7 1.6c1.3 0 2.3.8 2.9 2l.9 2.1.9-2.1c.5-1.2 1.7-2 3-2 1.9 0 3.1 1.7 3.2 3.5 0 0 .1.5-.1 1.3-.3 1.2-.9 2.3-1.9 3.2l-5 4.5-5.1-4.5c-1-.9-1.6-2-1.9-3.2-.2-.8-.1-1.2-.1-1.2.1-1.9 1.3-3.6 3.2-3.6m0-1C2.4.6.7 2.6.5 4.9c0 0-.1.6.1 1.6C1 8 1.8 9.3 2.9 10.3l5.6 5.1 5.7-5.1c1.1-1 1.9-2.2 2.2-3.7.2-1 .1-1.6.1-1.6-.2-2.4-1.9-4.3-4.2-4.3-1.7 0-3.2 1.1-3.8 2.6C7.8 1.7 6.4.6 4.7.6z"/></svg>