<svg id="Слой_1" xmlns="http://www.w3.org/2000/svg" width="19" height="18" viewBox="0 0 19 18"><style>.st0{fill:#bdc0c0}</style><path class="st0" d="M8.5 8h2v4.9h-2zm0-2.9h2v2h-2z"/><path class="st0" d="M9.5 2c1.9 0 3.6.7 5 2.1 1.3 1.3 2.1 3.1 2.1 5s-.7 3.6-2.1 5c-1.3 1.3-3.1 2.1-5 2.1s-3.6-.7-5-2.1c-1.3-1.3-2.1-3.1-2.1-5s.7-3.6 2.1-5C5.9 2.7 7.6 2 9.5 2m0-2C7.2 0 4.9.9 3.1 2.6c-3.5 3.5-3.5 9.2 0 12.7C4.9 17.1 7.2 18 9.5 18c2.3 0 4.6-.9 6.4-2.6 3.5-3.5 3.5-9.2 0-12.7C14.1.9 11.8 0 9.5 0z"/></svg>