<svg id="Слой_1" xmlns="http://www.w3.org/2000/svg" viewBox="0 0 40 40"><style>.st0{fill:#0d0f0f}</style><path class="st0" d="M20 0C9 0 0 8.9 0 19.9s9 19.9 20 19.9 20-8.9 20-19.9S31 0 20 0zm9.3 27h-2.9s-.6.1-1.4-.4c-1.1-.7-2.1-2.7-2.9-2.4-.8.3-.8 2-.8 2s0 .4-.2.6c-.1.1-.5.2-.5.2h-1.3s-2.8.2-5.3-2.4c-2.7-2.8-5.1-8.5-5.1-8.5s-.1-.4 0-.5c.2-.2.6-.2.6-.2h3.1s.3 0 .5.2c.2.1.3.4.3.4s.5 1.3 1.2 2.4c1.3 2.2 1.9 2.7 2.3 2.5.6-.3.4-3.1.4-3.1s0-1-.3-1.5c-.3-.3-.7-.5-1-.5-.2 0 .1-.4.5-.6.6-.3 1.5-.3 2.7-.3.9 0 1.2.1 1.5.1 1.1.3.7 1.2.7 3.6 0 .8-.1 1.8.4 2.2.2.2.8 0 2.3-2.4.7-1.2 1.2-2.5 1.2-2.5s.1-.2.3-.3c.2-.1.4-.1.4-.1h3.2s1-.1 1.1.3c.2.5-.4 1.5-1.7 3.3-2.2 2.9-2.4 2.6-.6 4.3 1.7 1.6 2.1 2.4 2.1 2.5.7 1-.8 1.1-.8 1.1z"/></svg>