<svg xmlns="http://www.w3.org/2000/svg" width="13" height="15" viewBox="0 0 13 15"><path d="M11.8 8.3c.6 0 1.2-.5 1.2-1.1 0-.6-.4-1.2-1-1.2l-4.2-.6s.9-1.5.9-3.6C8.7.4 7.7.2 7.1.2c-.5 0-.6.9-.6.9-.1.6-.2 1.1-.7 2-.5 1.1-1.3 1-2.1 1.9-.3.2-.5.5-.7.8v.1s0 .1-.1.1c0 .1-.1.1-.1.2-.5.5-1.4.5-1.7.5-.7 0-1.1.4-1.1 1.1v5c0 .8.3 1 1.1 1h1.1c.5 0 1 .3 1.6.5.9.3 2.2.5 4.5.5h1.6c.4 0 .7-.2.9-.4.1-.1.2-.2.2-.4v-.2c0-.6-.4-.9-.6-1h.7c.6 0 1.2-.4 1.2-1.2 0-.6-.5-1.1-1.1-1.1h.4c.6 0 1.2-.5 1.2-1.1.1-.6-.4-1.1-1-1.1z"/></svg>