<svg xmlns="http://www.w3.org/2000/svg" width="13" height="15" viewBox="0 0 13 15"><path d="M11.8 6.7c.6 0 1.2.5 1.2 1.1 0 .6-.4 1.2-1 1.2l-4.2.6s.9 1.5.9 3.6c0 1.4-1 1.6-1.6 1.6-.5 0-.6-.9-.6-.9-.1-.6-.2-1.1-.7-2-.5-1.1-1.3-1-2.1-1.9-.3-.2-.5-.5-.7-.8v-.1S3 9 2.9 9c0-.1-.1-.1-.1-.2-.5-.5-1.4-.5-1.7-.5C.4 8.3 0 7.9 0 7.2v-5c0-.8.3-1 1.1-1h1.1c.5 0 1-.3 1.6-.5C4.7.4 6 .2 8.3.2h1.6c.4 0 .7.2.9.4.2.1.3.2.3.4v.2c0 .6-.4.9-.6 1h.7c.6 0 1.2.4 1.2 1.2 0 .6-.5 1.1-1.1 1.1h.4c.6 0 1.2.5 1.2 1.1 0 .6-.5 1.1-1.1 1.1z"/></svg>