<svg xmlns="http://www.w3.org/2000/svg" width="24" height="24" viewBox="0 0 24 24"><path d="M12 0C5.4 0 0 5.4 0 12s5.4 12 12 12 12-5.4 12-12S18.6 0 12 0zm6.9 17.3h-2.1s-.5.1-1-.3c-.8-.5-1.5-1.9-2.1-1.8-.7.2-.7 1.5-.7 1.5s0 .3-.1.4c-.1.2-.4.2-.4.2h-.9s-2.1.1-3.9-1.8c-2-2.1-3.8-6.2-3.8-6.2s-.1-.3 0-.4c.1-.2.5-.2.5-.2h2.3s.2 0 .4.1c.1.1.2.3.2.3s.2.9.7 1.8c.9 1.6 1.4 2 1.7 1.8.5-.3.3-2.3.3-2.3s0-.7-.2-1.1c-.2-.2-.5-.3-.7-.3-.1-.1.1-.4.3-.5.4-.2 1.1-.2 2-.2.7 0 .8 0 1.1.1.8.2.5.9.5 2.6 0 .6-.1 1.3.3 1.6.2.1.6 0 1.6-1.8.6-.8 1-1.8 1-1.8s.1-.2.2-.3c.1-.1.3-.1.3-.1h2.4s.7-.1.8.2c.1.3-.3 1.1-1.2 2.4-1.6 2.1-1.8 1.9-.4 3.1 1.3 1.2 1.5 1.7 1.6 1.8.4 1.1-.7 1.2-.7 1.2z"/></svg>