<svg xmlns="http://www.w3.org/2000/svg" width="24" height="24" viewBox="0 0 24 24"><path d="M12 0C5.4 0 0 5.4 0 12s5.4 12 12 12 12-5.4 12-12S18.6 0 12 0zm5.2 9.3v.3c0 3.5-2.7 7.6-7.6 7.6-1.5 0-2.9-.4-4.1-1.2h.6c1.2 0 2.4-.4 3.3-1.1-1.2 0-2.2-.8-2.5-1.9h.5c.2 0 .5 0 .7-.1-1.2-.1-2.1-1.1-2.1-2.4.4.2.8.3 1.2.3C6.5 10.3 6 9.5 6 8.5c0-.5.1-.9.4-1.3 1.3 1.6 3.3 2.7 5.5 2.8 0-.2-.1-.4-.1-.6 0-1.5 1.2-2.7 2.7-2.7.8 0 1.5.3 1.9.8.6-.1 1.2-.3 1.7-.6-.2.6-.6 1.1-1.2 1.5.6-.1 1.1-.2 1.6-.4-.4.5-.8 1-1.3 1.3z"/></svg>