<svg xmlns="http://www.w3.org/2000/svg" width="20" height="19" viewBox="0 0 20 19"><path d="M19.9 3.7c-.1-.2-.3-.3-.5-.3H7c-.4 0-.7.3-.7.6 0 .4.3.6.6.6h11.5L18 6.1H8.4c-.4 0-.7.3-.7.7 0 .4.3.6.6.6h9.2L17 9.1H9c-.4 0-.6.3-.6.6 0 .4.3.6.6.6h7.6l-.4 1.4H7.7l-3.5-10c0-.2-.2-.3-.3-.4L.9.1C.5 0 .2.2 0 .5c-.1.3 0 .7.4.8l2.7 1.1L6.5 12c-.1.1-.3.2-.3.3l-1 2.7c-.1.2 0 .3.1.5.1.1.3.2.4.2h.5c-.3.3-.5.8-.5 1.3 0 1.1.9 1.9 1.9 1.9S9.5 18 9.5 17c0-.5-.2-.9-.5-1.3h4.2c-.3.3-.5.8-.5 1.3 0 1.1.9 1.9 1.9 1.9 1.1 0 1.9-.9 1.9-1.9 0-.5-.2-.9-.5-1.3h.6c.3 0 .5-.2.5-.5s-.2-.5-.5-.5H6.4L7 13H16.7c.3 0 .5-.2.6-.4L20 4.2c0-.2 0-.4-.1-.5zM7.6 17.8c-.5 0-.9-.4-.9-.9s.4-.9.9-.9.9.4.9.9c-.1.6-.4.9-.9.9zm7.1 0c-.5 0-.9-.4-.9-.9s.4-.9.9-.9.9.4.9.9c-.1.6-.5.9-.9.9z"/></svg>