<svg xmlns="http://www.w3.org/2000/svg" width="20" height="20" viewBox="0 0 20 20"><path d="M8 18.2c.2 0 .3.1.5.1.4.1.7.5.6.9 0 .2-.2.4-.3.5-.2.1-.4.2-.6.1-.2 0-.4-.1-.6-.1-.4-.1-.7-.5-.6-1 .1-.3.5-.6 1-.5zM2 7.4c0 .2-.1.3-.3.4-.2.2-.4.2-.7.2-.4-.1-.7-.6-.5-1 .1-.2.1-.4.2-.6.2-.4.6-.6 1-.4.4.2.6.6.4 1 0 .1 0 .3-.1.4zM5.4 17.1c.1.1.3.2.4.3.4.2.5.7.3 1.1-.1 0-.1.1-.2.2-.2.2-.6.2-.9 0-.2-.1-.3-.2-.5-.3-.4-.2-.5-.7-.2-1.1.2-.4.7-.5 1.1-.2zM0 9.7c0-.4.4-.8.8-.8s.8.4.8.8v.5c0 .3-.1.5-.3.7-.2.1-.3.2-.5.2-.4 0-.8-.3-.8-.8v-.6zM2.2 15c.4-.3.9-.2 1.1.2.1.1.2.3.3.4.3.3.2.8-.1 1.1h-.1c-.3.2-.8.2-1.1-.1-.1-.2-.3-.3-.4-.5-.2-.4-.1-.9.3-1.1zM1 12c.4-.1.9.1 1 .5.1.2.1.3.2.5.1.4 0 .7-.3.9-.1 0-.1.1-.2.1-.4.2-.9 0-1-.5-.1-.2-.1-.4-.2-.6-.2-.3.1-.7.5-.9zM11.5 18.3c.7-.1 1.4-.3 2.1-.7.2-.1.3-.2.5-.2.3-.2.5-.3.8-.5 3.8-2.7 4.7-7.9 2-11.7-.6-.8-1.3-1.5-2.1-2.1-2.8-1.9-6.5-2-9.4-.1L6 4c.2.3 0 .4-.3.4L3 4.2c-.3 0-.5-.3-.4-.6L3.3 1c.1-.3.3-.3.5-.1l.6.9C6.5.4 9.1-.2 11.7.3c.3 0 .5.1.8.2 2.2.5 4.1 1.7 5.5 3.6 0 .1.1.1.1.2.1.1.1.2.2.3 1.1 1.8 1.7 3.8 1.6 5.8v.6c0 .2-.1.4-.1.6-.4 2.1-1.3 3.9-2.8 5.4-.4.4-.8.7-1.3 1.1-1.2.8-2.5 1.4-4 1.7-.4.1-.9-.2-.9-.6 0-.4.3-.8.7-.9z"/><path d="M9.5 3.6c-.4 0-.7.3-.7.7v6.5l5.9 3.1c.1 0 .2.1.3.1.2 0 .5-.1.6-.4.2-.3 0-.7-.3-.9L10.1 10V4.2c.1-.3-.2-.6-.6-.6z"/></svg>