<svg xmlns="http://www.w3.org/2000/svg" width="18" height="20" viewBox="0 0 18 20"><path d="M8.9 10.8s.1 0 0 0c.1 0 .1 0 0 0H9c1.2 0 2.2-.4 2.9-1.3 1.6-1.8 1.3-4.9 1.3-5.2-.1-2.2-1.1-3.3-2-3.8C10.6.2 9.9 0 9 0c-.5 0-1.4.1-2.3.6-.9.5-1.9 1.5-2 3.8 0 .3-.3 3.4 1.3 5.2.7.7 1.7 1.2 2.9 1.2zM5.8 4.4C6 1.4 8.1 1.1 9 1.1c1.1 0 3 .5 3.1 3.3 0 0 .3 2.8-1 4.3-.5.7-1.2.9-2.1 1-.9 0-1.6-.3-2.1-.9-1.4-1.5-1.1-4.3-1.1-4.4z"/><path d="M17.5 15.9v-.1c0-.8-.1-2.7-1.9-3.3-1.9-.5-3.4-1.6-3.4-1.6-.3-.2-.6-.1-.8.1-.2.3-.1.6.1.8.1.1 1.7 1.2 3.8 1.7 1 .3 1.1 1.4 1.1 2.3v.1c0 .4 0 .9-.1 1.3-.7.4-3.3 1.7-7.3 1.7s-6.6-1.3-7.3-1.7c-.1-.3-.1-.9-.1-1.3v-.1c0-.9.1-2 1.1-2.3 2.1-.5 3.7-1.7 3.8-1.7.3-.2.3-.5.1-.8-.2-.3-.5-.3-.8-.1 0 0-1.6 1.1-3.4 1.6C.6 13 .5 15 .5 15.8v.1c0 .2 0 1.3.2 1.9 0 .1.1.2.2.3C1 18.1 4 20 9 20s8-1.9 8.1-2c.1-.1.2-.2.2-.3.2-.5.2-1.6.2-1.8z"/></svg>