<svg id="Слой_1" xmlns="http://www.w3.org/2000/svg" viewBox="0 0 22 18"><style>.st0{fill:none;stroke:#0d0f0f;stroke-miterlimit:10}.st1{fill:#0d0f0f}</style><path class="st0" d="M17.5.8l-13 3"/><circle class="st1" cx="10.5" cy="2.3" r="2"/><path class="st1" d="M9.5 13s-1 4-4.2 4-3.8-4-3.8-4h8m1.3-1H.4l.1 1.1C.7 14.9 2 18 5.3 18c4 0 5.2-4.6 5.2-4.8l.3-1.2z"/><path class="st0" d="M1.5 13l4-8 4 8z"/><path class="st1" d="M20.5 9s-1 4-4.2 4-3.8-4-3.8-4h8m1.3-1H11.4l.1 1.1c.2 1.7 1.5 4.9 4.8 4.9 4 0 5.2-4.6 5.2-4.8l.3-1.2z"/><path class="st0" d="M12.5 9l4-8 4 8z"/></svg>