<svg id="Слой_1" xmlns="http://www.w3.org/2000/svg" viewBox="0 0 22 18"><style>.st0{fill:#0d0f0f}</style><path transform="rotate(77.021 11 2.287)" class="st0" d="M10.5-4.4h1V8.9h-1z"/><circle class="st0" cx="10.5" cy="2.3" r="2"/><path class="st0" d="M9.5 13s-1 4-4.2 4-3.8-4-3.8-4h8m1.3-1H.4l.1 1.1C.7 14.9 2 18 5.3 18c4 0 5.2-4.6 5.2-4.8l.3-1.2z"/><path class="st0" d="M10.3 13.5H.7l4.8-9.6 4.8 9.6zm-8-1h6.4L5.5 6.2l-3.2 6.3zM20.5 9s-1 4-4.2 4-3.8-4-3.8-4h8m1.3-1H11.4l.1 1.1c.2 1.7 1.5 4.9 4.8 4.9 4 0 5.2-4.6 5.2-4.8l.3-1.2z"/><path class="st0" d="M21.3 9.5h-9.6l4.8-9.6 4.8 9.6zm-8-1h6.4l-3.2-6.4-3.2 6.4z"/></svg>