<svg xmlns="http://www.w3.org/2000/svg" width="26" height="24" viewBox="0 0 26 24"><path d="M12.9 2.3l2.6 2.3.5.5h3.5v3.5l.5.5 2.6 2.9-2.6 2.9-.5.5v3.5H16l-.5.5-2.6 2.3-3.4-2.4-.5-.4H5.6v-3.4l-.3-.5-2.1-3 2.1-3.1.3-.5V5.1H9l.5-.3 3.4-2.5M13 0L8.4 3.2H3.8v4.6L1 12l2.8 4.1v4.6h4.6L13 24l3.7-3.2h4.6v-4.6L25 12l-3.7-4.1V3.2h-4.6L13 0z"/><path d="M6.85 16.4L16.958 6.284l1.273 1.272L8.124 17.672zM8.8 12.5c-1.8 0-3.2-1.4-3.2-3.2C5.6 7.5 7.1 6 8.8 6 10.6 6 12 7.4 12 9.2c.1 1.8-1.4 3.3-3.2 3.3zm0-4.6c-.8 0-1.4.6-1.4 1.4s.6 1.4 1.4 1.4 1.4-.6 1.4-1.4-.6-1.4-1.4-1.4zM16.2 18c-1.8 0-3.2-1.4-3.2-3.2 0-1.8 1.4-3.2 3.2-3.2 1.8 0 3.2 1.4 3.2 3.2 0 1.7-1.4 3.2-3.2 3.2zm0-4.6c-.8 0-1.4.6-1.4 1.4 0 .8.6 1.4 1.4 1.4.8 0 1.4-.6 1.4-1.4 0-.8-.6-1.4-1.4-1.4z"/></svg>