<svg xmlns="http://www.w3.org/2000/svg" width="26" height="26" viewBox="0 0 26 26"><path d="M13 2c6.1 0 11 4.9 11 11s-4.9 11-11 11S2 19.1 2 13 6.9 2 13 2m0-2C5.8 0 0 5.8 0 13s5.8 13 13 13 13-5.8 13-13S20.2 0 13 0z"/><path d="M13 17c-2.2 0-4-1.8-4-4s1.8-4 4-4 4 1.8 4 4-1.8 4-4 4zm0-6c-1.1 0-2 .9-2 2s.9 2 2 2 2-.9 2-2-.9-2-2-2z"/><path d="M10.8 11.9c-.2 0-.4-.1-.6-.2-.4-.3-.5-1-.1-1.4 1-1.3.7-2.5.1-3.2-.6-.6-1.6-1-2.5-.3-.5.3-1.1.2-1.4-.2-.4-.5-.3-1.1.2-1.4 1.6-1.1 3.7-.9 5.1.6 1.3 1.3 1.8 3.7 0 5.8-.2.2-.5.3-.8.3zM16.7 12.3c-.6 0-1.2-.1-1.9-.4-.5-.2-.8-.8-.6-1.3.2-.5.8-.8 1.3-.6 1.5.6 2.6-.1 3-.9.5-.6.5-1.7-.3-2.4-.4-.3-.5-1-.2-1.4.3-.4 1-.5 1.4-.2 1.6 1.2 2 3.3 1 5-.7 1.3-2 2.2-3.7 2.2zM17.4 21.2c-.5 0-1-.1-1.5-.3-1.7-.6-3.2-2.5-2.6-5.2.1-.5.6-.9 1.2-.8.5.1.9.7.8 1.2-.4 1.6.5 2.5 1.4 2.9.8.3 1.8.2 2.4-.8.3-.5.9-.7 1.4-.4.5.3.7.9.4 1.4-.8 1.2-2.1 2-3.5 2zM7.9 20h-.3c-1.9-.6-3-2.3-2.7-4.4.3-1.8 1.8-3.6 4.5-3.6.6 0 1 .5 1 1 0 .6-.5 1-1 1-1.7 0-2.4 1-2.5 1.9-.1.8.2 1.8 1.3 2.1.5.2.8.7.7 1.2-.2.5-.6.8-1 .8z"/></svg>